<?xml version="1.0" encoding="UTF-8"?>
<svg id="Layer_1" data-name="Layer 1" xmlns="http://www.w3.org/2000/svg" viewBox="0 0 20.1 20">
  <path d="M20,9c-.1-1.7-.7-3.2-1.6-4.6-1.4-2.1-3.4-3.5-5.8-4.1-.7-.2-1.4-.3-2-.3h-1.6c-2,.2-3.7.9-5.3,2.1C1.9,3.6.7,5.4.2,7.7c-.1.5-.2,1.1-.2,1.6v1.6c.2,1.7.7,3.3,1.7,4.7,1.1,1.6,2.6,2.9,4.4,3.6,1.1.4,2.2.7,3.3.8h1.6c2.4-.2,4.5-1.2,6.2-3,1.4-1.4,2.3-3.1,2.7-5,.1-.5.1-.9.2-1.4v-1.1c-.1-.2-.1-.3-.1-.5ZM10,18.4c-4.7,0-8.4-3.8-8.4-8.5S5.4,1.4,10.2,1.4c4.6.1,8.4,3.8,8.4,8.5-.1,4.7-3.9,8.5-8.6,8.5Z" fill="#31c5f4"/>
  <path d="M12.4,15.3c-.2,0-.3,0-.5-.1-.2,0-.2-.2-.3-.3v-6.5c-1.6.1-3.1.1-4.7.2v.8h1c.4,0,.6.3.6.7v4.6c0,.4-.2.6-.6.6h-.9v.8h6v-.8s-.6,0-.6,0ZM9.8,7.2c1,0,1.7-.8,1.7-1.7s-.8-1.7-1.7-1.7c-1,0-1.7.8-1.7,1.7s.8,1.7,1.7,1.7Z" fill="#31c5f4"/>
</svg>