<?xml version="1.0" encoding="UTF-8"?>
<svg id="Layer_1" data-name="Layer 1" xmlns="http://www.w3.org/2000/svg" viewBox="0 0 19.9 17.82">
  <path d="M15.83,12.29c.1,1.1.2,2.1.2,3.2,0,1.3-.7,2.2-1.7,2.3-.5.1-1.1,0-1.6-.2-1-.5-1.9-1.2-2.9-1.8-.5.4-1,.8-1.6,1.2-.3.2-.7.4-1,.5-1.8.8-3.3-.1-3.4-2.1,0-1,.1-2.1.2-3.2-.6-.2-1.2-.4-1.8-.8-.6-.3-1.1-.7-1.6-1.2-.9-.9-.8-2,.1-2.9.8-.9,1.9-1.3,3-1.7.1,0,.3-.1.4-.1-.1-.7-.2-1.5-.3-2.2,0-.6.1-1.3.2-1.9C4.33.29,5.33-.21,6.53.09c1.2.3,2.1,1,2.9,1.7.2.1.3.3.4.4.8-.6,1.6-1.2,2.5-1.7.6-.4,1.3-.6,2-.4,1,.2,1.6,1.1,1.7,2.4v1.6c0,.5-.2,1-.3,1.6.6.2,1.1.4,1.7.7.8.4,1.6.8,2.1,1.6.5.7.5,1.5,0,2.2-.5.8-1.3,1.2-2.1,1.6-.6.1-1.1.3-1.6.5ZM10.03,12.19c.3,0,.8-.1,1.2-.1.3,0,.5-.1.7-.4.5-.8,1-1.6,1.4-2.5.1-.2.1-.5,0-.6-.5-.9-1-1.7-1.5-2.5-.1-.2-.3-.3-.5-.3-.9,0-1.7,0-2.6-.1-.5,0-.9.2-1.2.7-.2.3-.4.6-.6,1-1.1,2-1.1,1.2,0,3.2,1.2,1.9.6,1.5,3.1,1.6ZM4.23,11.39c.3-.8.6-1.6.9-2.3v-.4c-.3-.8-.6-1.5-.9-2.3-1,.3-2,.7-2.8,1.3-.9.7-.9,1.6,0,2.3.8.8,1.8,1.1,2.8,1.4ZM15.53,6.29c-.4.9-.7,1.7-1,2.5,0,.1-.1.2,0,.2.3.8.6,1.6,1,2.6.9-.5,1.9-.9,2.7-1.4,1.1-.7,1.1-1.7,0-2.4-.8-.7-1.8-1-2.7-1.5ZM4.83,5.29c.9-.1,1.7-.2,2.5-.4.1,0,.2-.1.2-.1.5-.7,1-1.3,1.6-2-.8-.7-1.6-1.4-2.6-1.8-1.1-.4-1.8,0-2,1.2-.1,1,.1,2,.3,3.1ZM14.83,5.29c0-.1.1-.3.1-.4.2-1,.4-2.1,0-3.1-.2-.7-.7-1-1.3-.9-1.3.2-2.2,1.1-3.1,1.9.5.7,1,1.3,1.5,1.9l.3.3c.8.1,1.6.2,2.5.3ZM4.83,12.49c-.2,1.1-.5,2.1-.2,3.2.2,1,.9,1.4,1.9,1.1,1.1-.3,1.9-1.1,2.7-1.8-.5-.7-1-1.3-1.6-2-.1-.1-.2-.2-.3-.2-.8,0-1.6-.1-2.5-.3ZM10.43,14.99c.6.8,1.8,1.6,2.6,1.9,1,.3,1.7,0,1.9-1.1.2-1.1,0-2.1-.2-3.2-.9.1-1.8.1-2.6.4-.6.3-.9,1-1.3,1.5-.1.2-.2.3-.4.5ZM11.03,4.79c-.4-.5-.8-.9-1.2-1.4-.4.5-.7.9-1.2,1.4h2.4ZM11.03,12.99h-2.3c.4.5.8.9,1.2,1.4.3-.5.7-.9,1.1-1.4ZM6.93,11.99c-.4-.7-.8-1.3-1.2-2.1-.2.6-.4,1.1-.6,1.7.5.2,1.1.3,1.8.4ZM13.93,9.89l-1.2,2.1c.7-.1,1.2-.2,1.8-.3-.1-.6-.3-1.1-.6-1.8ZM5.73,7.89l1.2-2.1c-.7.1-1.2.2-1.8.3.2.7.3,1.2.6,1.8ZM12.73,5.79c.2.4.4.7.6,1s.4.6.6,1c.2-.6.4-1.2.6-1.7-.6,0-1.1-.1-1.8-.3Z" fill="#529bba"/>
</svg>